<svg xmlns="http://www.w3.org/2000/svg" viewBox="0 0 465 300"><defs><style>.cls-1{fill:none;}.cls-2{fill:#fff;}</style></defs><title>Asset 6</title><g id="Layer_2" data-name="Layer 2"><g id="Layer_1-2" data-name="Layer 1"><rect class="cls-1" width="465" height="300"/><polygon class="cls-2" points="100 135.21 100 149.65 138.95 145.37 138.95 129.74 100 135.21"/><polygon class="cls-2" points="112.43 150.53 112.43 200 126.69 200 126.69 149.07 112.43 150.53"/><polygon class="cls-2" points="144.2 129 144.2 200 159.23 200 159.23 126.89 144.2 129"/><polygon class="cls-2" points="162.03 126.5 162.03 142.83 183.72 140.44 183.72 123.45 162.03 126.5"/><polygon class="cls-2" points="162.03 154.98 162.03 171.62 176.27 170.84 176.27 153.76 162.03 154.98"/><polygon class="cls-2" points="162.03 183.6 162.03 200 183.72 200 183.72 182.95 162.03 183.6"/><polygon class="cls-2" points="239.83 115.54 239.83 200 259.52 200 259.52 112.77 239.83 115.54"/><polygon class="cls-2" points="263.2 112.25 263.2 131.68 291.9 128.52 291.9 108.22 263.2 112.25"/><polygon class="cls-2" points="263.2 146.29 263.2 166.08 282.02 165.05 282.02 144.68 263.2 146.29"/><polygon class="cls-2" points="263.2 180.54 263.2 200 291.9 200 291.9 179.68 263.2 180.54"/><polygon class="cls-2" points="189.46 122.64 189.46 200 206.58 200 206.58 120.23 189.46 122.64"/><polygon class="cls-2" points="209.77 182.16 209.77 200 234.61 200 234.61 181.41 209.77 182.16"/><path class="cls-2" d="M356.26,107.26C350,101.38,340.9,99,330.92,100.4V122c4-.22,7.32,1.28,8.78,4.3,2.3,4.76-.07,11.91-5.68,18.53-8.66,10.21-31.68,31.12-31.68,31.12l33.05-1.09c20.19-19.72,27.44-31.7,28.74-46.64A25.53,25.53,0,0,0,356.26,107.26Z"/><polygon class="cls-2" points="298.26 179.47 298.27 200 365.3 200 365.3 177.45 298.26 179.47"/><path class="cls-2" d="M327.07,100.89c-19.47,4.14-29,18.47-27.93,41.85l20.76-1.85c-.95-13.2,3.09-16.33,7.18-18.06Z"/></g></g></svg>